<svg id="Layer_1" data-name="Layer 1" xmlns="http://www.w3.org/2000/svg" viewBox="0 0 167.95 137.59"><defs><style>.cls-1{fill:#00d1b2;}.cls-2{fill:#3273dc;}</style></defs><title>Artboard 2</title><path class="cls-1" d="M13.65,134.75V123.94a21.81,21.81,0,0,0,13.2,4.13q4.76,0,7.41-2a6.78,6.78,0,0,0,2.65-5.7,6.47,6.47,0,0,0-3.28-5.82q-3.28-2-9-2H19.39V103h4.84q11,0,11-7.31,0-6.88-8.45-6.88a19.22,19.22,0,0,0-11,3.66V82.28a30.42,30.42,0,0,1,13.84-3q8.64,0,13.46,3.89a12.38,12.38,0,0,1,4.81,10.1q0,11-11.2,13.83v.2a15.25,15.25,0,0,1,9.44,4.34,12.27,12.27,0,0,1,3.46,8.83A15.13,15.13,0,0,1,43.8,133q-5.78,4.6-16,4.6Q19.12,137.59,13.65,134.75Z"/><path class="cls-2" d="M104.45,117.85a20.69,20.69,0,0,1-1.45,7.79,19.11,19.11,0,0,1-4.05,6.27,18.65,18.65,0,0,1-6.17,4.16,21.05,21.05,0,0,1-16.33-.25,17.13,17.13,0,0,1-6.35-5.13,23.74,23.74,0,0,1-4-8.23,40.64,40.64,0,0,1-1.38-11.05,45.45,45.45,0,0,1,1.79-13.18,30.25,30.25,0,0,1,5.11-10.13,23.16,23.16,0,0,1,8-6.5,24,24,0,0,1,10.62-2.3q6.52,0,10.14,1.54V91.2a18.62,18.62,0,0,0-9.35-2.43A13.11,13.11,0,0,0,85.39,90,12.63,12.63,0,0,0,81,93.45a16.56,16.56,0,0,0-2.87,5.4,24.05,24.05,0,0,0-1.12,7h.24q4-5.53,11.83-5.54a15.29,15.29,0,0,1,6.33,1.26,13.65,13.65,0,0,1,4.84,3.55,16.29,16.29,0,0,1,3.1,5.53A21.93,21.93,0,0,1,104.45,117.85Zm-12.14.8q0-9.09-7.43-9.08a7.24,7.24,0,0,0-3.06.63A6.65,6.65,0,0,0,79.45,112a8,8,0,0,0-1.51,2.7,10.44,10.44,0,0,0-.53,3.43A13.26,13.26,0,0,0,78,122a10.33,10.33,0,0,0,1.55,3.17,7.84,7.84,0,0,0,2.38,2.14,6.12,6.12,0,0,0,3.06.79,6.61,6.61,0,0,0,3-.69,6.83,6.83,0,0,0,2.32-1.92,9,9,0,0,0,1.48-3A13.65,13.65,0,0,0,92.31,118.65Z"/><path class="cls-1" d="M137.27,137.59q-20.13,0-20.12-28.26,0-14.67,5.44-22.36t15.78-7.68Q158,79.3,158,108q0,14.31-5.37,21.93T137.27,137.59Zm.55-48.82q-8.06,0-8.06,20.25,0,19.06,7.9,19.05,7.7,0,7.7-19.65T137.82,88.76Z"/><polygon class="cls-1" points="116.53 35.41 148.31 53.76 111.62 53.76 107.22 70.18 161.51 70.18 162.53 66.37 166.93 49.95 167.95 46.13 120.94 18.99 116.53 35.41"/><polygon class="cls-2" points="124.22 70.18 133.72 34.74 143.21 70.18 160.21 70.18 146.16 17.74 121.27 17.74 107.22 70.18 124.22 70.18"/><polygon class="cls-1" points="27.24 70.18 36.74 34.74 46.23 70.18 63.23 70.18 49.18 17.74 45.24 17.74 28.23 17.74 24.29 17.74 10.24 70.18 27.24 70.18"/><polygon class="cls-2" points="58.83 53.76 19.64 53.76 53.58 34.16 49.18 17.74 0 46.13 6.44 70.18 63.23 70.18 58.83 53.76"/><polygon class="cls-2" points="110.15 0 97.03 48.9 72.14 48.9 59.02 0 76.04 0 84.59 31.94 93.19 0 110.15 0"/><polygon class="cls-1" points="94.1 13.48 84.6 48.92 75.11 13.48 58.1 13.48 72.16 65.92 97.05 65.92 111.1 13.48 94.1 13.48"/></svg>